<?xml version="1.0" encoding="UTF-8"?>
<!DOCTYPE svg PUBLIC "-//W3C//DTD SVG 1.0//EN" "http://www.w3.org/TR/2001/REC-SVG-20010904/DTD/svg10.dtd">
<!-- Creator: CorelDRAW 2021.5 -->
<svg xmlns="http://www.w3.org/2000/svg" xml:space="preserve" width="60.89mm" height="28.6352mm" version="1.0" style="shape-rendering:geometricPrecision; text-rendering:geometricPrecision; image-rendering:optimizeQuality; fill-rule:evenodd; clip-rule:evenodd"
viewBox="0 0 6589.28 3098.79"
 xmlns:xlink="http://www.w3.org/1999/xlink"
 xmlns:xodm="http://www.corel.com/coreldraw/odm/2003">
 <defs>
  <style type="text/css">
   <![CDATA[
    .fil1 {fill:#00377D}
    .fil0 {fill:#00377D;fill-rule:nonzero}
   ]]>
  </style>
 </defs>
 <g id="Слой_x0020_1">
  <metadata id="CorelCorpID_0Corel-Layer"/>
  <g id="_2092540116304">
   <path class="fil0" d="M5973.52 1584.59c-86.85,84.94 -129.31,183.38 -129.31,287.62 0,225.85 171.21,345.78 389.9,341.66 203.79,-3.84 355.17,-200.29 355.17,-439.63 0,-225.85 -156.34,-297.26 -299.2,-357.11 -102.29,-42.45 -241.28,-108.08 -241.28,-235.48 0,-75.29 52.12,-138.97 156.36,-138.97 125.47,0 193.01,84.92 225.84,144.76l9.64 258.65 23.16 0 -11.57 -403.41 -27.02 0 1.93 69.49c-75.28,-75.29 -154.42,-92.68 -223.91,-92.68 -117.74,0 -264.44,57.92 -264.44,227.78 0,131.27 90.71,198.81 193.01,256.73 50.19,27.02 102.31,50.19 152.5,73.35 148.63,67.56 281.81,127.4 281.81,225.85 0,110.01 -164.07,275.54 -333.92,275.54 -173.73,0 -357.11,-69.49 -357.11,-241.28 0,-73.35 34.76,-160.2 113.9,-237.42l-15.45 -15.45z"/>
   <path class="fil0" d="M4431.56 1971.13l27.01 0c108.1,-270.24 330.08,-565.57 513.46,-737.36 3.86,27.02 5.8,56.09 5.8,90.72l0 349.41c41.37,-27.68 89.48,-57.3 131.24,-100.11l0 -249.3c0,-90.72 -13.51,-133.18 -30.9,-169.87 75.29,-54.04 167.95,-100.37 254.81,-100.37 158.29,0 193.03,125.49 193.03,283.75l0 819.33 4.07 23.17 127.2 0 0 -23.17 0 -798.09c0,-206.54 -65.62,-339.74 -289.53,-339.74 -108.11,0 -221.98,54.05 -301.13,113.9 -28.96,-44.39 -88.78,-113.9 -237.42,-113.9 -69.51,0 -177.58,27.03 -266.4,94.6l0 -98.44c-73.35,34.74 -162.13,63.7 -283.73,75.29l0 23.16c0,0 84.92,-5.79 152.49,-25.1l0 676.42 0 182.55 0 23.17zm131.24 -830.01c65.64,-48.29 144.77,-86.88 229.71,-86.88 92.65,0 152.5,40.53 175.66,152.5 -135.13,119.67 -287.61,304.99 -405.37,505.72l0 -571.34z"/>
   <path class="fil0" d="M5658.98 2203.66l479.27 0 17.37 -40.56c-57.9,11.6 -315.2,17.39 -446.45,17.39l-50.19 0 0 -454.12 -25.1 0c-1.93,194.96 -71.42,454.12 -266.37,454.12l-30.88 0 0 23.17 191.09 0 0 613.33c0,177.56 81.08,281.81 233.57,281.81 164.07,0 231.62,-119.68 231.62,-220.05 0,-89.47 -44.39,-160.45 -100.64,-232.65l-30.09 0c59.69,72.87 107.58,143.6 107.58,232.65 0,121.6 -84.92,173.73 -160.2,173.73 -71.41,0 -150.56,-46.33 -150.56,-208.49 0,-271.12 2.33,-407.19 0,-640.33z"/>
   <g>
    <path class="fil0" d="M3789.2 1042.67c152.5,0 218.13,140.9 220.07,304.96l-463.28 0c28.96,-185.3 123.54,-304.96 243.22,-304.96zm364.84 328.13c-1.94,-169.87 -110.03,-351.32 -349.39,-351.32 -262.53,0 -420.8,214.28 -420.8,486.44 0,366.76 247.07,486.43 442.03,486.43 190.02,0 323.38,-135.54 382.57,-320.21l-24.45 0c-57.53,172.12 -182.44,297.04 -358.12,297.04 -129.34,0 -289.54,-94.58 -289.54,-490.28 0,-38.61 1.94,-73.35 5.78,-108.1l611.92 0z"/>
    <path class="fil0" d="M2591.77 2121.83c181.44,0 324.27,-102.31 418.86,-250.94 78.74,-105.97 121.15,-372.62 127.38,-500.06l451.13 0 0 -23.17 -1155.67 0 0 23.17 640.86 0 38.23 0.43 0.37 9.2c-17.18,170.82 -29.19,337.71 -123.27,484.93 -89.79,140.46 -224.59,233.27 -397.89,233.27 -50.19,0 -110.03,-13.52 -164.09,-40.55l-21.23 -11.57c-148.63,-83.01 -289.53,-281.83 -289.53,-644.71 0,-455.56 206.52,-712.27 511.52,-712.27 208.48,0 343.59,121.6 416.94,212.32l21.78 242.71 25.95 0 -34.21 -447.32 -27.03 0 7.7 131.27c-113.88,-98.44 -250.91,-162.14 -418.86,-162.14 -382.19,0 -679.45,304.97 -679.45,727.71 0,268.58 104.61,540.2 348.78,661.67 95.7,47.6 194.44,66.06 301.73,66.06z"/>
    <path class="fil0" d="M3675.53 2461.92c38.16,8.92 84.59,8.06 131.33,-1.31 65.6,-13.15 145.11,-34.27 219.02,-72.81 -23.29,-109.81 -87.85,-193.49 -206.35,-193.49 -66.66,0 -135.24,29.92 -180.56,75.22 -34.48,34.46 -50.2,76.25 -46.96,112.65 3.15,35.39 24.03,65.85 83.51,79.73zm522.66 -156.97c53.59,-26.96 112.01,-57.44 174.38,-91.65 137.32,-75.32 293.8,-168.73 459.96,-282.44l6.43 -5.26 0.93 58.51 0 325.2c52.12,-108.1 138.99,-183.38 235.51,-183.38 52.12,0 90.71,21.25 119.67,42.47l-1.93 -42.47 25.1 0 9.65 515.4 -21.24 0 -9.64 -360.98c-1.44,-54.02 -46.33,-131.24 -131.27,-131.24 -133.19,0 -225.85,175.63 -225.85,335.86l0 569.43 171.79 0 0 23.16 -455.54 0 0 -23.16 152.5 0 0 -1015.55c-18.99,12.13 -37.53,23.92 -56.69,35.87 -95.28,59.48 -185.67,111.81 -268.99,157.52 -93.52,51.28 -178.21,94.25 -251.13,129.56 25.69,50.73 31.29,97.47 31.29,170.38l0 20.36 0 340.69c14.51,122.53 84.24,159.26 147.82,159.26 75.29,0 160.2,-52.13 160.2,-173.73 0,-89.05 -47.89,-159.78 -107.58,-232.65l30.09 0c56.25,72.2 100.64,143.18 100.64,232.65 0,100.37 -67.55,220.05 -231.62,220.05 -69.13,0 -133.37,-17.07 -176.42,-57.99 -32.92,-31.31 -53.49,-76.58 -54.4,-138.9 -169.87,177.59 -285.68,196.89 -360.96,196.89 -150.57,0 -218.14,-86.85 -218.14,-196.89 0,-52.48 16.19,-97.44 43.89,-136.2 68.6,-96.04 136.32,-119.52 235.06,-156.84 88.48,-33.48 187.08,-56.53 300.15,-75.64l0 -1.05c0,-45.5 4.83,-82.19 -1.83,-122.26 -73.63,37.93 -153.02,58.65 -218.95,71.88 -49.63,9.98 -99.28,10.81 -140.46,1.19 -68.96,-16.1 -95.71,-53.61 -100.07,-97.23 -3.85,-38.6 8.55,-82.15 41.74,-119.91 47.52,-54.09 126.67,-96.62 218.82,-96.62 107.19,0 227.46,67.51 290.1,173.22 26.62,-13.95 50.29,-24.05 76.98,-37.49zm-479.03 361.47l-19.32 13.51c-59.83,46.32 -94.58,110.03 -94.58,196.88 0,117.75 67.55,160.22 148.62,160.22 92.48,0 215.72,-101.91 277.62,-169.47 -1.58,-16.11 -2.39,-32.98 -2.39,-50.58 0,-89.57 2.75,-172.9 2.75,-260.6 -119.68,21.23 -231.65,54.04 -312.7,110.03z"/>
    <path class="fil1" d="M201.1 1937.31l2875.24 973.99 42.98 -723.07 7.92 -0.24 106.11 895.29 -2757.05 0.79 -476.3 -1209.53 1697.93 -1874.54 1217.81 393.43 -2.08 7.91 -1119.06 -227.42 -120.54 1295.92 -1472.96 467.46zm1464.58 -474.14l-4 -1211.2 -1400.44 1546.06 1404.44 -334.86zm-1490.46 482.24l307.29 1129.83 2324.65 -119.65 -2631.94 -1010.18z"/>
   </g>
  </g>
 </g>
</svg>
