<svg width="13" height="11" viewBox="0 0 13 11" fill="none" xmlns="http://www.w3.org/2000/svg">
<path d="M10.1991 6.75675C10.0372 6.89271 9.9628 7.08933 9.99968 7.28216L10.5553 9.94716C10.6022 10.173 10.4922 10.4016 10.2741 10.5322C10.0603 10.6676 9.77593 10.6838 9.5428 10.5755L6.77468 9.32425C6.67843 9.27983 6.57155 9.256 6.46218 9.25329H6.2928C6.23405 9.26087 6.17655 9.27712 6.12405 9.30204L3.3553 10.5592C3.21843 10.6188 3.06343 10.64 2.91155 10.6188C2.54155 10.5582 2.29468 10.2527 2.3553 9.93037L2.91155 7.26537C2.94843 7.07091 2.87405 6.87321 2.71218 6.73508L0.455303 4.83925C0.266553 4.68054 0.200928 4.44221 0.287178 4.22716C0.370928 4.01266 0.584678 3.85612 0.842803 3.82091L3.94905 3.43037C4.1853 3.40925 4.3928 3.28466 4.49905 3.1005L5.8678 0.668415C5.9003 0.614248 5.94218 0.564415 5.9928 0.522165L6.04905 0.484248C6.07843 0.456081 6.11218 0.43279 6.14968 0.413831L6.2178 0.392165L6.32405 0.354248H6.58718C6.82218 0.375373 7.02905 0.497248 7.13718 0.679248L8.52405 3.1005C8.62405 3.27762 8.81843 3.40058 9.0428 3.43037L12.1491 3.82091C12.4116 3.85341 12.6309 4.0105 12.7178 4.22716C12.7997 4.44437 12.7291 4.68271 12.5366 4.83925L10.1991 6.75675Z" fill="#FFAC0C"/>
</svg>
